<?xml version="1.0" standalone="no"?>
<!DOCTYPE svg PUBLIC "-//W3C//DTD SVG 20010904//EN"
 "http://www.w3.org/TR/2001/REC-SVG-20010904/DTD/svg10.dtd">
<svg version="1.0" xmlns="http://www.w3.org/2000/svg"
 width="702.000000pt" height="702.000000pt" viewBox="0 0 702.000000 702.000000"
 preserveAspectRatio="xMidYMid meet">
<metadata>
Created by potrace 1.11, written by Peter Selinger 2001-2013
</metadata>
<g transform="translate(0.000000,702.000000) scale(0.100000,-0.100000)"
fill="#000000" stroke="none">
<path d="M0 3510 l0 -3510 3510 0 3510 0 0 3510 0 3510 -3510 0 -3510 0 0
-3510z m2283 2320 c21 -21 44 -108 147 -545 110 -465 140 -577 140 -522 0 23
228 1006 242 1040 24 60 -37 58 1187 55 l1120 -3 23 -23 c21 -21 23 -31 23
-142 0 -117 -1 -120 -28 -147 -27 -28 -29 -28 -173 -31 -143 -4 -146 -4 -140
-25 3 -12 111 -356 241 -765 129 -409 235 -755 235 -770 0 -40 -25 -70 -68
-82 -40 -11 -350 -14 -401 -4 -57 12 -73 40 -115 208 l-40 156 -163 0 -162 0
-10 -37 c-66 -258 -74 -283 -98 -305 -23 -22 -33 -23 -196 -26 -94 -2 -191 -1
-215 3 -56 8 -92 42 -92 86 0 18 110 374 245 792 135 418 243 762 241 764 -2
2 -212 1 -467 -4 l-463 -8 -219 -790 c-188 -683 -221 -793 -243 -812 -25 -23
-30 -23 -284 -23 -254 0 -259 0 -285 23 -22 19 -56 134 -281 949 -238 858
-256 930 -244 958 23 57 41 60 292 57 l228 -2 23 -25z m2962 -2274 c18 -8 38
-23 44 -34 6 -12 11 -70 11 -131 0 -102 -2 -112 -24 -138 l-24 -28 -1712 0
-1712 0 -24 28 c-22 26 -24 36 -24 138 0 61 5 119 11 130 26 50 -43 48 1747
49 1420 0 1678 -2 1707 -14z m-2562 -719 c55 -14 127 -42 161 -61 71 -40 163
-132 196 -196 81 -158 78 -404 -7 -563 -28 -51 -121 -155 -156 -174 -16 -8 -2
-38 137 -279 156 -269 169 -301 145 -346 -22 -40 -66 -48 -276 -48 -169 0
-203 3 -233 18 -30 15 -52 50 -172 272 -76 140 -145 256 -153 258 -13 3 -15
-25 -15 -215 0 -120 -5 -235 -10 -255 -19 -65 -29 -68 -263 -68 -206 0 -208 0
-232 24 -13 13 -26 39 -30 57 -3 19 -5 372 -3 784 2 601 6 755 16 773 29 50
49 52 437 49 352 -3 362 -4 458 -30z m1840 4 c16 -14 71 -130 144 -297 l118
-274 5 268 c4 189 9 273 18 289 21 37 72 45 264 41 l178 -3 27 -28 28 -27 0
-790 0 -790 -28 -27 -27 -28 -214 0 c-207 0 -215 1 -238 22 -13 13 -75 143
-143 301 l-120 279 -5 -279 c-6 -357 15 -332 -288 -326 l-172 3 -27 28 -28 27
0 789 0 789 24 26 c13 14 33 27 45 29 11 3 110 4 218 3 192 -1 197 -2 221 -25z"/>
<path d="M1824 5753 c3 -10 109 -394 236 -853 127 -459 238 -859 246 -887 l15
-53 230 0 c126 0 229 1 229 3 0 10 448 1618 452 1622 2 3 419 8 926 12 l922 6
0 84 0 83 -1095 0 c-602 0 -1095 -2 -1095 -4 0 -2 -54 -235 -119 -517 -65
-283 -138 -598 -162 -701 -23 -104 -45 -188 -49 -188 -4 0 -22 66 -40 148 -18
81 -91 397 -164 702 l-131 555 -203 3 c-191 2 -203 1 -198 -15z"/>
<path d="M4072 4718 c-134 -414 -242 -756 -242 -760 0 -5 79 -8 175 -8 156 0
175 2 183 18 5 9 28 92 52 185 l43 167 231 -2 231 -3 42 -160 c23 -88 44 -170
48 -182 5 -23 7 -23 190 -23 142 0 185 3 184 13 0 6 -107 347 -237 757 l-237
745 -210 3 -211 2 -242 -752z m598 -120 c0 -5 -71 -8 -158 -8 l-159 0 29 108
c16 59 49 190 74 292 24 102 47 192 50 200 5 12 163 -562 164 -592z"/>
<path d="M4493 4770 c-12 -46 -20 -86 -18 -88 1 -2 21 -2 42 0 l39 3 -21 85
-21 85 -21 -85z"/>
<path d="M1870 3395 l0 -85 1670 0 1670 0 0 85 0 85 -1670 0 -1670 0 0 -85z"/>
<path d="M1866 2743 c-3 -21 -6 -361 -6 -755 l0 -718 180 0 180 0 0 270 0 271
87 -3 88 -3 145 -270 146 -270 197 -3 c108 -1 197 0 197 3 0 3 -76 138 -170
300 -93 162 -170 297 -170 300 0 2 17 13 39 24 64 33 147 117 180 182 41 82
54 156 49 269 -14 252 -157 388 -452 429 -42 6 -214 11 -380 11 l-303 0 -7
-37z m670 -258 c99 -29 148 -122 124 -231 -15 -67 -52 -112 -119 -142 -48 -22
-73 -26 -188 -30 l-133 -5 0 212 0 211 133 0 c89 0 150 -5 183 -15z"/>
<path d="M2310 2290 l0 -120 53 0 c74 1 135 15 166 37 36 28 54 85 41 133 -14
51 -60 70 -175 70 l-85 0 0 -120z"/>
<path d="M4105 2768 c-3 -7 -4 -348 -3 -758 l3 -745 168 -3 169 -2 -5 392 c-4
312 -9 423 -25 538 -10 80 -18 147 -16 149 2 2 8 -9 14 -25 34 -90 178 -432
302 -719 l143 -330 183 -3 182 -2 0 760 0 760 -171 0 -171 0 5 -377 c4 -301 9
-411 26 -538 11 -87 19 -161 17 -162 -1 -2 -26 57 -55 130 -29 72 -132 315
-229 540 l-176 407 -178 0 c-134 0 -180 -3 -183 -12z"/>
</g>
</svg>
